<svg width="282" height="62" viewBox="0 0 282 62" fill="none" xmlns="http://www.w3.org/2000/svg">
<g clip-path="url(#clip0_972_1203)">
<g clip-path="url(#clip1_972_1203)">
<g clip-path="url(#clip2_972_1203)">
<path d="M118.259 8.99577C118.259 8.50781 117.863 8.11169 117.375 8.11169H110.36C109.872 8.11169 109.476 8.50781 109.476 8.99577V26.3213C107.294 23.8815 104.275 22.6645 100.411 22.6645C97.5639 22.6645 94.9805 23.3017 92.6728 24.5819C90.365 25.8563 88.5566 27.6761 87.242 30.0356C85.9274 32.4065 85.2729 35.1448 85.2729 38.2563C85.2729 41.3678 85.9274 44.1061 87.242 46.4713C88.5566 48.8365 90.365 50.6506 92.6728 51.9308C94.9748 53.2052 97.5581 53.8424 100.411 53.8424C104.539 53.8424 107.691 52.5335 109.872 49.9043V52.4991C109.872 52.9928 110.274 53.3947 110.768 53.3947H117.375C117.863 53.3947 118.259 52.9985 118.259 52.5106V8.99577ZM107.449 44.3645C105.986 45.8858 104.149 46.6435 101.933 46.6435C99.6822 46.6435 97.8222 45.8858 96.3641 44.3645C94.9002 42.8432 94.1654 40.811 94.1654 38.2563C94.1654 35.7074 94.9002 33.6637 96.3641 32.1482C97.8279 30.6326 99.6822 29.8691 101.933 29.8691C104.143 29.8691 105.986 30.6269 107.449 32.1482C108.913 33.6695 109.642 35.7074 109.642 38.2563C109.642 40.811 108.913 42.8432 107.449 44.3645Z" fill="#212528"/>
<path d="M230.175 11.7628C230.175 11.4298 229.957 11.1428 229.641 11.0394L222.465 8.80055C221.903 8.65129 221.351 9.0761 221.351 9.65592L221.374 25.9194C221.374 26.3155 220.904 26.5165 220.611 26.2524C218.51 24.3292 215.743 23.3705 212.31 23.3705C209.462 23.3705 206.879 24.0078 204.571 25.288C202.264 26.5624 200.455 28.3822 199.141 30.7417C197.826 33.1126 197.172 35.8509 197.172 38.9624C197.172 42.0796 197.826 44.8122 199.141 47.1774C200.455 49.5426 202.264 51.3567 204.571 52.6368C206.873 53.9113 209.457 54.5485 212.31 54.5485C216.437 54.5485 219.589 53.2396 221.771 50.6104V53.2052C221.771 53.6989 222.172 54.1007 222.666 54.1007H229.274C229.762 54.1007 230.158 53.7046 230.158 53.2167C230.158 53.2167 230.181 12.3828 230.175 11.7628ZM219.348 45.0648C217.884 46.5861 216.047 47.3439 213.831 47.3439C211.581 47.3439 209.721 46.5861 208.263 45.0648C206.799 43.5435 206.064 41.5113 206.064 38.9567C206.064 36.4078 206.799 34.3641 208.263 32.8485C209.726 31.333 211.586 30.5694 213.831 30.5694C216.041 30.5694 217.884 31.3272 219.348 32.8485C220.812 34.3698 221.541 36.4078 221.541 38.9567C221.547 41.5113 220.818 43.5435 219.348 45.0648Z" fill="#212528"/>
<path d="M154.311 23.118H147.319C146.825 23.118 146.423 23.5198 146.423 24.0135V38.0898C146.423 40.788 145.786 42.8259 144.506 44.198C143.231 45.57 141.544 46.2474 139.443 46.2474C135.349 46.2474 133.311 43.8133 133.311 38.9337V24.0135C133.311 23.5198 132.91 23.118 132.416 23.118H125.424C124.93 23.118 124.528 23.5198 124.528 24.0135V40.2311C124.528 44.7319 125.694 48.1304 128.019 50.4209C130.344 52.7115 133.495 53.8539 137.474 53.8539C139.351 53.8539 141.096 53.5037 142.709 52.8148C144.322 52.1202 145.711 51.1156 146.871 49.8067V52.5106C146.871 53.0043 147.273 53.4061 147.767 53.4061H154.311C154.805 53.4061 155.207 53.0043 155.207 52.5106V24.0135C155.207 23.5198 154.805 23.118 154.311 23.118Z" fill="#212528"/>
<path d="M180.127 23.3648C178.061 23.3648 176.172 23.715 174.444 24.4039C172.716 25.0985 171.269 26.0859 170.11 27.3604V24.7024C170.11 24.2144 169.714 23.8183 169.226 23.8183H162.612C162.124 23.8183 161.728 24.2144 161.728 24.7024V53.2109C161.728 53.6989 162.124 54.095 162.612 54.095H169.622C170.11 54.095 170.506 53.6989 170.506 53.2109V39.1231C170.506 36.425 171.16 34.387 172.475 33.015C173.784 31.643 175.546 30.9655 177.768 30.9655C179.754 30.9655 181.275 31.5568 182.326 32.7394C183.376 33.922 183.899 35.7131 183.899 38.1128V53.2109C183.899 53.6989 184.295 54.095 184.783 54.095H191.792C192.28 54.095 192.676 53.6989 192.676 53.2109V36.758C192.676 32.3318 191.523 28.9965 189.215 26.7404C186.913 24.49 183.882 23.3648 180.127 23.3648Z" fill="#212528"/>
<path d="M237.626 13.5252C237.127 13.3702 236.616 13.7433 236.616 14.2657L236.633 53.2109C236.633 53.6989 237.029 54.095 237.517 54.095H244.642C245.072 54.095 245.417 53.7505 245.417 53.32V16.5218C245.417 16.1831 245.193 15.8789 244.871 15.7813L237.626 13.5252Z" fill="#212528"/>
<path d="M280.28 41.4539C276.198 41.4539 258.184 41.4539 258.184 41.4539C258.597 43.3311 259.573 44.8122 261.112 45.9029C262.65 46.9937 264.568 47.5333 266.858 47.5333C268.437 47.5333 269.832 47.2979 271.049 46.8329C272.036 46.4483 272.966 45.8972 273.845 45.1566C274.201 44.8581 274.729 44.904 275.045 45.2428L278.575 49.0718C278.902 49.4278 278.874 49.9674 278.535 50.3061C275.71 53.1478 271.744 54.5657 266.634 54.5657C263.219 54.5657 260.199 53.8998 257.57 52.5679C254.946 51.2361 252.914 49.3876 251.49 47.0281C250.067 44.6629 249.349 41.982 249.349 38.9796C249.349 36.0116 250.055 33.3422 251.462 30.9541C252.868 28.5716 254.803 26.7174 257.26 25.3855C259.717 24.0537 262.461 23.3878 265.503 23.3878C268.466 23.3878 271.152 24.025 273.552 25.3052C275.952 26.5796 277.84 28.4052 279.207 30.7933C280.579 33.1757 281.262 35.9428 281.262 39.0944C281.262 39.1863 281.222 39.6972 281.153 40.6387C281.124 41.0922 280.745 41.4539 280.28 41.4539ZM260.555 31.7176C259.206 32.8428 258.373 34.3813 258.075 36.3331H272.989C272.691 34.4157 271.864 32.8944 270.515 31.7463C269.166 30.6039 267.513 30.0298 265.561 30.0298C263.575 30.0298 261.904 30.5924 260.555 31.7176Z" fill="#212528"/>
<path d="M71.4322 26.9299L49.7781 4.42041L39.4792 14.3232L55.5303 31.0115L52.6484 33.7556L62.7292 43.8823L65.4216 41.2932L65.4273 41.2989L71.2599 35.6845C73.7227 33.3136 73.8031 29.3926 71.4322 26.9299Z" fill="url(#paint0_linear_972_1203)"/>
<path d="M55.9492 14.2944C59.1813 14.2715 61.2135 16.3037 61.2135 16.3037L59.2846 14.2944H59.2961L47.4127 1.91167C46.2359 0.688889 44.617 0 42.9292 0H13.2553C13.2553 0 11.0624 0.981667 11.0624 2.93926C11.0624 4.92556 12.1072 5.84407 14.1107 7.61796L20.615 14.2944H21.1374L38.0783 14.3002L38.0726 14.2944H55.9492Z" fill="url(#paint1_linear_972_1203)"/>
<path d="M11.9694 47.7343H12.1358H21.9812H38.2677L38.2849 47.7228H11.6766C11.734 47.7285 11.7914 47.7285 11.8488 47.7343C11.889 47.7285 11.9292 47.7343 11.9694 47.7343Z" fill="url(#paint2_linear_972_1203)"/>
<path d="M12.0269 5.22981C10.9189 4.01278 10.9476 2.13556 12.1187 0.958704C12.71 0.373148 13.0085 0.212407 14.2543 0H12.423C11.3265 0.0688889 10.2989 0.424815 9.39186 1.00463H9.38612C8.94408 1.28593 8.53075 1.61315 8.1576 1.99778C8.1576 1.99778 0.729078 9.62722 0.5913 9.84537C-0.344441 11.2863 -0.17796 13.2267 1.085 14.4896L17.5954 30.9541L27.6933 20.8504L12.0269 5.22981Z" fill="url(#paint3_linear_972_1203)"/>
<path d="M36.7006 29.8634L27.6992 20.8619L25.2593 18.4278C25.644 19.2889 25.9195 19.8458 25.9195 20.7011C25.9195 20.8561 25.9138 21.0111 25.8966 21.1604C25.799 22.1822 25.3627 23.1008 24.7197 23.8298L2.50305 46.0695L2.69824 47.7171L21.0399 47.7285L36.7064 32.0563C37.3092 31.4478 37.3092 30.4661 36.7006 29.8634Z" fill="url(#paint4_linear_972_1203)"/>
<path d="M8.1575 47.717C6.51565 47.6367 5.20676 46.2933 5.20676 44.6343C5.20676 43.8076 5.44213 43.5665 6.06213 42.5102L1.07917 47.4874C0.0343525 48.5782 -0.195277 50.1683 0.338612 51.4887C0.510834 51.9078 0.751945 52.2982 1.07917 52.6426L8.05417 59.9965C9.27694 61.2767 10.9705 62 12.7386 62L23.4853 61.9598L38.2619 47.7343L8.1575 47.717Z" fill="url(#paint5_linear_972_1203)"/>
<path d="M62.8323 38.6122L55.5301 31.0115L25.7701 59.5315C23.4968 61.8393 20.6264 61.9713 20.6264 61.9713L23.4279 61.9598L41.3505 61.9885C42.9521 61.9943 44.4964 61.3743 45.6503 60.2663L62.7347 43.8822C64.2159 42.4585 64.2618 40.0933 62.8323 38.6122Z" fill="url(#paint6_linear_972_1203)"/>
</g>
</g>
</g>
<defs>
<linearGradient id="paint0_linear_972_1203" x1="56.3198" y1="12.196" x2="56.3198" y2="45.8765" gradientUnits="userSpaceOnUse">
<stop stop-color="#6B2D6B"/>
<stop offset="0.3127" stop-color="#865386"/>
<stop offset="1" stop-color="#865386"/>
</linearGradient>
<linearGradient id="paint1_linear_972_1203" x1="24.0518" y1="21.1449" x2="59.5145" y2="-14.3178" gradientUnits="userSpaceOnUse">
<stop stop-color="#00469B"/>
<stop offset="0.25" stop-color="#287ABE"/>
<stop offset="1" stop-color="#287ABE"/>
</linearGradient>
<linearGradient id="paint2_linear_972_1203" x1="30.6824" y1="54.2372" x2="3.30819" y2="22.9606" gradientUnits="userSpaceOnUse">
<stop stop-color="#B54621"/>
<stop offset="0.25" stop-color="#FD7800"/>
<stop offset="1" stop-color="#FD7800"/>
</linearGradient>
<linearGradient id="paint3_linear_972_1203" x1="23.6266" y1="23.2016" x2="0.0663843" y2="-0.358592" gradientUnits="userSpaceOnUse">
<stop stop-color="#007834"/>
<stop offset="0.25" stop-color="#1DB14B"/>
<stop offset="1" stop-color="#1DB14B"/>
</linearGradient>
<linearGradient id="paint4_linear_972_1203" x1="19.8312" y1="46.6157" x2="19.8312" y2="1.38517" gradientUnits="userSpaceOnUse">
<stop offset="0.00705381" stop-color="#C09200"/>
<stop offset="0.2148" stop-color="#FFCB04"/>
<stop offset="1" stop-color="#FFCB04"/>
</linearGradient>
<linearGradient id="paint5_linear_972_1203" x1="26.9724" y1="57.6785" x2="5.56589" y2="36.272" gradientUnits="userSpaceOnUse">
<stop stop-color="#B54621"/>
<stop offset="0.25" stop-color="#FD7800"/>
<stop offset="1" stop-color="#FD7800"/>
</linearGradient>
<linearGradient id="paint6_linear_972_1203" x1="58.3351" y1="36.2715" x2="27.753" y2="66.8536" gradientUnits="userSpaceOnUse">
<stop stop-color="#B90A4E"/>
<stop offset="0.00705467" stop-color="#B90A4E"/>
<stop offset="0.2755" stop-color="#FF3451"/>
<stop offset="1" stop-color="#FF3451"/>
</linearGradient>
<clipPath id="clip0_972_1203">
<rect width="282" height="62" fill="white"/>
</clipPath>
<clipPath id="clip1_972_1203">
<rect width="281.239" height="62" fill="white"/>
</clipPath>
<clipPath id="clip2_972_1203">
<rect width="281.268" height="62" fill="white"/>
</clipPath>
</defs>
</svg>
